<svg xmlns="http://www.w3.org/2000/svg" xmlns:xlink="http://www.w3.org/1999/xlink" viewBox="0 0 2741.22 951.42"><defs><style>.cls-1,.cls-2{fill:none;}.cls-1{stroke:#231f20;stroke-miterlimit:10;}.cls-3{fill:url(#linear-gradient);}.cls-4{fill:url(#linear-gradient-2);}.cls-5{fill:url(#linear-gradient-3);}.cls-6{fill:url(#linear-gradient-4);}.cls-7,.cls-8{opacity:0.4;}.cls-7{fill:url(#linear-gradient-5);}.cls-8{fill:url(#linear-gradient-6);}</style><linearGradient id="linear-gradient" x1="63.21" y1="31.72" x2="540.21" y2="625.72" gradientUnits="userSpaceOnUse"><stop offset="0" stop-color="#f79421"/><stop offset="0.46" stop-color="#f69221"/><stop offset="0.63" stop-color="#f28b21"/><stop offset="0.75" stop-color="#ec8021"/><stop offset="0.84" stop-color="#e26f20"/><stop offset="0.92" stop-color="#d65920"/><stop offset="0.99" stop-color="#c73e1f"/><stop offset="1" stop-color="#c63c1f"/></linearGradient><linearGradient id="linear-gradient-2" x1="80.74" y1="184.98" x2="83.8" y2="176.43" gradientUnits="userSpaceOnUse"><stop offset="0" stop-color="#c63c1f"/><stop offset="0.4" stop-color="#c73e1f"/><stop offset="0.58" stop-color="#cb451f"/><stop offset="0.71" stop-color="#d25220"/><stop offset="0.82" stop-color="#dc6420"/><stop offset="0.92" stop-color="#e97b20"/><stop offset="1" stop-color="#f79421"/></linearGradient><linearGradient id="linear-gradient-3" x1="259.71" y1="650" x2="446.54" y2="127.77" xlink:href="#linear-gradient-2"/><linearGradient id="linear-gradient-4" x1="198.2" y1="192.99" x2="272.4" y2="314.09" gradientUnits="userSpaceOnUse"><stop offset="0" stop-color="#c63c1f"/><stop offset="0.26" stop-color="#c83f1f"/><stop offset="0.46" stop-color="#cd491f"/><stop offset="0.64" stop-color="#d65920"/><stop offset="0.81" stop-color="#e37020"/><stop offset="0.97" stop-color="#f48e21"/><stop offset="1" stop-color="#f79421"/></linearGradient><linearGradient id="linear-gradient-5" x1="189.08" y1="166.95" x2="189.08" y2="176.45" gradientUnits="userSpaceOnUse"><stop offset="0" stop-color="#231f20"/><stop offset="0" stop-color="#252020" stop-opacity="0.99"/><stop offset="0.33" stop-color="#9a6121" stop-opacity="0.44"/><stop offset="0.66" stop-color="#e08721" stop-opacity="0.11"/><stop offset="1" stop-color="#f79421" stop-opacity="0"/></linearGradient><linearGradient id="linear-gradient-6" x1="2507.7" y1="762.5" x2="2507.7" y2="772" xlink:href="#linear-gradient-5"/></defs><title>reylogo</title><g id="Layer_2" data-name="Layer 2"><polygon class="cls-1" points="250.5 100.5 250.5 200.5 214.87 200.5 150.5 100.5 250.5 100.5"/><path class="cls-1" d="M-1827.48-245a200,200,0,0,1-6.31,50,198.15,198.15,0,0,1-20.45,50,200,200,0,0,1-23.24,32.29A200,200,0,0,1-1895.19-95q-1.86,1.65-3.77,3.24l-1.91,1.59q-3.23,2.64-6.57,5.15l-1.82,1.35L-1980.92-195h53.44V-395h-200v68.5L-2075-245h-52.46V-71.76A200,200,0,0,1-2159.77-95a200,200,0,0,1-17.71-17.71A200,200,0,0,1-2200.72-145a198.15,198.15,0,0,1-20.45-50,200,200,0,0,1-6.31-50,200,200,0,0,1,6.31-50,198.15,198.15,0,0,1,20.45-50,200,200,0,0,1,23.24-32.29A200,200,0,0,1-2159.77-395a200,200,0,0,1,32.29-23.24,198.15,198.15,0,0,1,50-20.45,200,200,0,0,1,50-6.31,200,200,0,0,1,50,6.31,198.15,198.15,0,0,1,50,20.45A200,200,0,0,1-1895.19-395a200,200,0,0,1,17.71,17.71A200,200,0,0,1-1854.24-345a198.15,198.15,0,0,1,20.45,50A200,200,0,0,1-1827.48-245Z" transform="translate(2227.98 445.5)"/><line class="cls-1" x1="247.06" y1="250.5" x2="185.15" y2="250.5"/><line class="cls-1" x1="152.96" y1="200.5" x2="214.87" y2="200.5"/><line class="cls-2" x1="1889.47" y1="706.16" x2="1877.55" y2="723.14"/><path class="cls-3" d="M363.24,131.59V299.21a16.19,16.19,0,0,1-16.19,16.19H213.24V489.71a16.19,16.19,0,0,1-20.73,15.55,249.13,249.13,0,0,1-79.27-39.84v0h0a251.69,251.69,0,0,1-50-50v0h0a249.59,249.59,0,0,1-6.9-290.33c.53-.79,1.06-1.57,1.61-2.34q2.57-3.72,5.29-7.33h0v0a251.69,251.69,0,0,1,50-50h0v0a250.1,250.1,0,0,1,250-29.18q10,4.36,19.52,9.56L353.78,87A200.2,200.2,0,0,0,90,165.4c-1.12,1.93-2.21,3.89-3.26,5.86l-1.22,2.32c-.37.7-.73,1.4-1.07,2.11q-1.58,3.1-3,6.29A196.71,196.71,0,0,0,69.55,215.4a200.26,200.26,0,0,0,93.69,223.24v-157a16.19,16.19,0,0,1,16.19-16.19h123a10.81,10.81,0,0,0,10.81-10.81V176.21a10.81,10.81,0,0,0-10.81-10.81H163.24V131.59a16.19,16.19,0,0,1,16.19-16.19H347.05A16.19,16.19,0,0,1,363.24,131.59Z" transform="translate(2227.98 445.5)"/><path class="cls-4" d="M84.45,175.69c-1,2.07-2,4.17-3,6.29Q82.87,178.8,84.45,175.69Z" transform="translate(2227.98 445.5)"/><path class="cls-5" d="M513.24,265.4a251.16,251.16,0,0,1-5,50,248.78,248.78,0,0,1-45,100h0v0a251.69,251.69,0,0,1-50,50h0v0q-2.31,1.74-4.67,3.42a248.87,248.87,0,0,1-32,19.47,16.22,16.22,0,0,1-21-5.66L255.34,327l-7.42-11.53,0-.05h56.18l0,.05L311.52,327l65.61,101.91c1.13-.25,5.54-3.05,6.15-3.51q3.35-2.5,6.57-5.15l1.91-1.59q1.9-1.59,3.77-3.24A200.12,200.12,0,0,0,363.24,92.16q-4.65-2.7-9.46-5.13l29-41.27a249.54,249.54,0,0,1,30.48,19.62v0h0a251.69,251.69,0,0,1,50,50v0h0a249,249,0,0,1,50,150Z" transform="translate(2227.98 445.5)"/><path class="cls-2" d="M353.78,87" transform="translate(2227.98 445.5)"/><path class="cls-6" d="M271.88,265.4H215.7L165,186.57a10.81,10.81,0,0,1-1.72-5.85V165.4h46.07v1.18a5.5,5.5,0,0,0,.87,3l4.75,7.38Z" transform="translate(2227.98 445.5)"/><path class="cls-7" d="M214.93,176.93H163.24V165.4h46.07v1.18a5.5,5.5,0,0,0,.87,3Z" transform="translate(2227.98 445.5)"/><polygon class="cls-8" points="2539.5 772.48 2483.32 772.48 2475.9 760.95 2532.08 760.95 2539.5 772.48"/></g></svg>